<?xml version="1.0" encoding="UTF-8"?>
<svg width="1440px" height="785px" viewBox="0 0 1440 785" version="1.1" xmlns="http://www.w3.org/2000/svg" xmlns:xlink="http://www.w3.org/1999/xlink" preserveAspectRatio="none">
    <!-- Generator: sketchtool 46.2 (44496) - http://www.bohemiancoding.com/sketch -->
    <title>610DB696-9225-4F91-9183-981111765968</title>
    <desc>Created with sketchtool.</desc>
    <defs>
        <path d="M0.5,26.6599763 C245.403335,110.34268 459.693754,152.184031 643.371256,152.184031 C918.887508,152.184031 1020.98757,1.15256904e-14 1285.21638,0 C1461.36892,0 1662.8327,62.9471662 1889.60771,188.841499 L1812.64786,805 L277.203568,805 L0.5,26.6599763 Z" id="path-1"></path>
        <filter x="-0.4%" y="-1.0%" width="100.8%" height="102.0%" filterUnits="objectBoundingBox" id="filter-3">
            <feMorphology radius="5" operator="erode" in="SourceAlpha" result="shadowSpreadInner1"></feMorphology>
            <feGaussianBlur stdDeviation="5" in="shadowSpreadInner1" result="shadowBlurInner1"></feGaussianBlur>
            <feOffset dx="0" dy="1" in="shadowBlurInner1" result="shadowOffsetInner1"></feOffset>
            <feComposite in="shadowOffsetInner1" in2="SourceAlpha" operator="arithmetic" k2="-1" k3="1" result="shadowInnerInner1"></feComposite>
            <feColorMatrix values="0 0 0 0 0.0235294118   0 0 0 0 0.0980392157   0 0 0 0 0.203921569  0 0 0 0.2 0" type="matrix" in="shadowInnerInner1"></feColorMatrix>
        </filter>
    </defs>
    <g id="Public-Content" stroke="none" stroke-width="1" fill="none" fill-rule="evenodd">
        <g id="Home-Page">
            <g id="Group-3" transform="translate(-312.000000, -20.000000)">
                <mask id="mask-2" fill="white">
                    <use xlink:href="#path-1"></use>
                </mask>
                <g id="Rectangle-5" transform="translate(945.053856, 402.500000) scale(1, -1) translate(-945.053856, -402.500000) ">
                    <use fill="#2F90E5" fill-rule="evenodd" xlink:href="#path-1"></use>
                    <use fill="black" fill-opacity="1" filter="url(#filter-3)" xlink:href="#path-1"></use>
                </g>
                <path d="M-7.5,720.5 C102.833333,603.833333 241.833333,545.5 409.5,545.5 C661,545.5 775.5,630.5 1027,630.5 C1278.5,630.5 1533.5,435 1785,435 C1952.66667,435 2030.33333,487.675669 2018,593.027006 L2018,1259.15426 L6,1248.78705 L-7.5,720.5 Z" id="Rectangle-5" fill-opacity="0.150000006" fill="#F9FBFD" mask="url(#mask-2)"></path>
            </g>
        </g>
    </g>
</svg>